<svg width="25" height="25" viewBox="0 0 25 25" fill="none" xmlns="http://www.w3.org/2000/svg">
<path d="M22.3853 2.28774C18.9016 -0.76258 13.2286 -0.76258 9.74854 2.28774L0.0961881 10.7328C0.0333184 10.7878 3.41896e-05 10.8623 3.41896e-05 10.94C3.41896e-05 11.0177 0.0333184 11.0922 0.0961881 11.1473L1.46083 12.3421C1.52321 12.3965 1.60765 12.427 1.69567 12.427C1.78369 12.427 1.86813 12.3965 1.9305 12.3421L11.5829 3.89709C12.7811 2.84794 14.375 2.27155 16.0688 2.27155C17.7626 2.27155 19.3565 2.84794 20.551 3.89709C21.7493 4.94625 22.4075 6.34188 22.4075 7.82171C22.4075 9.30477 21.7493 10.6972 20.551 11.7463L10.7138 20.3565L9.11984 21.7522C7.62946 23.0571 5.20713 23.0571 3.71674 21.7522C2.99559 21.1207 2.59988 20.282 2.59988 19.3883C2.59988 18.4946 2.99559 17.6559 3.71674 17.0245L13.4763 8.48229C13.7241 8.26857 14.0496 8.14876 14.3972 8.14876H14.4009C14.7485 8.14876 15.0703 8.26857 15.3144 8.48229C15.5621 8.69924 15.6953 8.9842 15.6953 9.28858C15.6953 9.58973 15.5584 9.87468 15.3144 10.0884L7.3373 17.0666C7.27443 17.1216 7.24115 17.1961 7.24115 17.2738C7.24115 17.3515 7.27443 17.426 7.3373 17.4811L8.70194 18.6759C8.76432 18.7303 8.84876 18.7608 8.93678 18.7608C9.0248 18.7608 9.10924 18.7303 9.17162 18.6759L17.145 11.6945C17.8809 11.0501 18.284 10.1953 18.284 9.28534C18.284 8.37543 17.8772 7.51732 17.145 6.87617C15.625 5.5453 13.1546 5.54854 11.6346 6.87617L10.6879 7.70837L1.87873 15.4184C1.28084 15.9388 0.806906 16.558 0.48441 17.24C0.161913 17.9221 -0.00272807 18.6534 3.41896e-05 19.3916C3.41896e-05 20.8908 0.669412 22.2994 1.87873 23.3583C3.13243 24.4528 4.77443 25 6.41644 25C8.05845 25 9.70046 24.4528 10.9505 23.3583L22.3853 13.3524C24.068 11.8758 25 9.9103 25 7.82171C25.0037 5.72987 24.0717 3.76433 22.3853 2.28774Z" fill="black"/>
</svg>
