<svg width="17" height="13" viewBox="0 0 17 13" fill="none" xmlns="http://www.w3.org/2000/svg">
<path d="M15.6997 10.2781C16.5112 9.49174 16.9982 8.50513 16.9982 7.42857C16.9982 5.10714 14.7406 3.18906 11.7984 2.84665C10.8689 1.17522 8.68509 0 6.13835 0C2.74761 0 0.000198756 2.07768 0.000198756 4.64286C0.000198756 5.71652 0.48712 6.70313 1.29865 7.49241C0.847146 8.38326 0.197918 9.07388 0.186114 9.08549C0.000198762 9.27991 -0.0529199 9.56429 0.0562684 9.81094C0.162506 10.0576 0.410393 10.2172 0.681888 10.2172C2.26069 10.2172 3.53554 9.63103 4.37658 9.09129C4.64808 9.15223 4.92843 9.19866 5.21468 9.23348C6.1413 10.8991 8.31622 12.0714 10.86 12.0714C11.4738 12.0714 12.064 12.0018 12.6247 11.8741C13.4658 12.4109 14.7377 13 16.3194 13C16.5909 13 16.8359 12.8404 16.945 12.5937C17.0513 12.3471 17.0011 12.0627 16.8152 11.8683C16.8034 11.8596 16.1512 11.169 15.6997 10.2781V10.2781ZM4.10804 7.59978L3.60341 7.92187C3.18732 8.18594 2.76237 8.39487 2.33152 8.54286C2.41119 8.40647 2.49087 8.26138 2.5676 8.11339L3.02501 7.21094L2.29315 6.5C1.89476 6.11116 1.4167 5.47567 1.4167 4.64286C1.4167 2.88147 3.5798 1.39286 6.13835 1.39286C8.6969 1.39286 10.86 2.88147 10.86 4.64286C10.86 6.40424 8.6969 7.89286 6.13835 7.89286C5.65143 7.89286 5.16451 7.83772 4.69234 7.73036L4.10804 7.59978ZM14.7052 9.28571L13.9763 9.99375L14.4337 10.8962C14.5104 11.0442 14.5901 11.1893 14.6698 11.3257C14.2389 11.1777 13.814 10.9687 13.3979 10.7047L12.8933 10.3826L12.306 10.5161C11.8338 10.6234 11.3469 10.6786 10.86 10.6786C9.26645 10.6786 7.84405 10.0953 6.9853 9.23638C9.9747 8.92299 12.2765 6.9904 12.2765 4.64286C12.2765 4.5442 12.2647 4.44844 12.2558 4.35268C14.1563 4.77344 15.5817 6.00089 15.5817 7.42857C15.5817 8.26138 15.1036 8.89687 14.7052 9.28571Z" fill="#929292"/>
</svg>
