<svg width="15" height="10" viewBox="0 0 15 10" fill="none" xmlns="http://www.w3.org/2000/svg">
<path d="M0.46875 0C0.34443 0 0.225201 0.0526785 0.137294 0.146447C0.0493861 0.240215 0 0.367392 0 0.5C0 0.632608 0.0493861 0.759785 0.137294 0.853553C0.225201 0.947321 0.34443 1 0.46875 1H14.5312C14.6556 1 14.7748 0.947321 14.8627 0.853553C14.9506 0.759785 15 0.632608 15 0.5C15 0.367392 14.9506 0.240215 14.8627 0.146447C14.7748 0.0526785 14.6556 0 14.5312 0H0.46875ZM0.46875 3C0.34443 3 0.225201 3.05268 0.137294 3.14645C0.0493861 3.24021 0 3.36739 0 3.5C0 3.63261 0.0493861 3.75979 0.137294 3.85355C0.225201 3.94732 0.34443 4 0.46875 4H14.5312C14.6556 4 14.7748 3.94732 14.8627 3.85355C14.9506 3.75979 15 3.63261 15 3.5C15 3.36739 14.9506 3.24021 14.8627 3.14645C14.7748 3.05268 14.6556 3 14.5312 3H0.46875ZM0 6.5C0 6.36739 0.0493861 6.24021 0.137294 6.14645C0.225201 6.05268 0.34443 6 0.46875 6H14.5312C14.6556 6 14.7748 6.05268 14.8627 6.14645C14.9506 6.24021 15 6.36739 15 6.5C15 6.63261 14.9506 6.75979 14.8627 6.85355C14.7748 6.94732 14.6556 7 14.5312 7H0.46875C0.34443 7 0.225201 6.94732 0.137294 6.85355C0.0493861 6.75979 0 6.63261 0 6.5ZM0.46875 9C0.34443 9 0.225201 9.05268 0.137294 9.14645C0.0493861 9.24021 0 9.36739 0 9.5C0 9.63261 0.0493861 9.75979 0.137294 9.85355C0.225201 9.94732 0.34443 10 0.46875 10H9.84375C9.96807 10 10.0873 9.94732 10.1752 9.85355C10.2631 9.75979 10.3125 9.63261 10.3125 9.5C10.3125 9.36739 10.2631 9.24021 10.1752 9.14645C10.0873 9.05268 9.96807 9 9.84375 9H0.46875Z" fill="#929292"/>
</svg>
