<svg width="25" height="25" viewBox="0 0 25 25" fill="none" xmlns="http://www.w3.org/2000/svg">
<g clip-path="url(#clip0_5702_7)">
<path d="M3.64583 25H19.2708C20.2393 24.9973 21.167 24.6104 21.8506 23.9244C22.5341 23.2383 22.9175 22.3091 22.9167 21.3407V13.4896C22.9167 13.2134 22.8069 12.9484 22.6116 12.7531C22.4162 12.5577 22.1513 12.448 21.875 12.448C21.5987 12.448 21.3338 12.5577 21.1384 12.7531C20.9431 12.9484 20.8333 13.2134 20.8333 13.4896V21.3407C20.8347 21.7567 20.671 22.1564 20.378 22.4518C20.0851 22.7473 19.6869 22.9145 19.2708 22.9167H3.64583C3.22977 22.9145 2.83157 22.7473 2.53863 22.4518C2.24569 22.1564 2.08195 21.7567 2.08333 21.3407V5.74275C2.08195 5.32668 2.24569 4.92705 2.53863 4.63157C2.83157 4.3361 3.22977 4.16891 3.64583 4.16671H11.4583C11.7346 4.16671 11.9996 4.05696 12.1949 3.86161C12.3903 3.66626 12.5 3.40131 12.5 3.12504C12.5 2.84877 12.3903 2.58382 12.1949 2.38847C11.9996 2.19312 11.7346 2.08337 11.4583 2.08337H3.64583C2.6774 2.08613 1.74962 2.47299 1.0661 3.15905C0.382585 3.8451 -0.000830303 4.77431 1.35011e-06 5.74275V21.3407C-0.000830303 22.3091 0.382585 23.2383 1.0661 23.9244C1.74962 24.6104 2.6774 24.9973 3.64583 25V25Z" fill="black"/>
<path d="M9.84892 10.9833L9.02705 14.7479C8.98985 14.9187 8.9962 15.096 9.04554 15.2637C9.09487 15.4313 9.18559 15.5839 9.30934 15.7073C9.4348 15.8276 9.5874 15.9159 9.75423 15.9646C9.92105 16.0134 10.0972 16.0213 10.2677 15.9875L14.0239 15.1635C14.219 15.1207 14.3976 15.0227 14.5385 14.8812L24.0323 5.3875C24.3225 5.09731 24.5527 4.75279 24.7098 4.37361C24.8669 3.99443 24.9477 3.58803 24.9477 3.1776C24.9477 2.76718 24.8669 2.36077 24.7098 1.98159C24.5527 1.60242 24.3225 1.2579 24.0323 0.967706C23.4372 0.399098 22.6459 0.0817871 21.8229 0.0817871C20.9999 0.0817871 20.2085 0.399098 19.6135 0.967706L10.1343 10.4708C9.99207 10.6108 9.893 10.7887 9.84892 10.9833ZM21.0864 2.44166C21.2846 2.25181 21.5484 2.14582 21.8229 2.14582C22.0973 2.14582 22.3612 2.25181 22.5593 2.44166C22.752 2.63815 22.86 2.90239 22.86 3.1776C22.86 3.45282 22.752 3.71705 22.5593 3.91354L21.8229 4.65L20.35 3.17708L21.0864 2.44166ZM11.8156 11.7271L18.8718 4.65312L20.3302 6.11875L13.2708 13.1948L11.401 13.6052L11.8156 11.7271Z" fill="black"/>
</g>
<defs>
<clipPath id="clip0_5702_7">
<rect width="25" height="25" fill="white"/>
</clipPath>
</defs>
</svg>
