<svg width="334" height="200" viewBox="0 0 334 200" fill="none" xmlns="http://www.w3.org/2000/svg">
<path d="M17 16.6667V83.3334C17 87.7536 18.7559 91.9929 21.8816 95.1185C25.0072 98.2441 29.2464 100 33.6667 100H83.6667M83.6667 16.6667V183.333M250.333 16.6667V83.3334C250.333 87.7536 252.089 91.9929 255.215 95.1185C258.34 98.2441 262.58 100 267 100H317M317 16.6667V183.333M133.667 33.3334V166.667C133.667 171.087 135.423 175.326 138.548 178.452C141.674 181.577 145.913 183.333 150.333 183.333H183.667C188.087 183.333 192.326 181.577 195.452 178.452C198.577 175.326 200.333 171.087 200.333 166.667V33.3334C200.333 28.9131 198.577 24.6738 195.452 21.5482C192.326 18.4226 188.087 16.6667 183.667 16.6667H150.333C145.913 16.6667 141.674 18.4226 138.548 21.5482C135.423 24.6738 133.667 28.9131 133.667 33.3334Z" stroke="black" stroke-width="33.3333" stroke-linecap="round" stroke-linejoin="round"/>
</svg>
